<?xml version="1.0" standalone="no"?><!DOCTYPE svg PUBLIC "-//W3C//DTD SVG 1.1//EN" "http://www.w3.org/Graphics/SVG/1.1/DTD/svg11.dtd"><svg t="1710388317079" class="icon" viewBox="0 0 1024 1024" version="1.1" xmlns="http://www.w3.org/2000/svg" p-id="6852" xmlns:xlink="http://www.w3.org/1999/xlink" width="200" height="200"><path d="M928 0H83.2C38.4 0 0 38.4 0 83.2v844.8c0 51.2 44.8 96 96 96h819.2c57.6 0 108.8-51.2 108.8-108.8V96c0-51.2-44.8-96-96-96z m-512 512c6.4 6.4 6.4 19.2 0 25.6l-147.2 217.6h211.2c12.8 0 19.2 6.4 19.2 19.2s-6.4 19.2-19.2 19.2H230.4c-12.8 0-19.2-6.4-19.2-19.2 0-6.4 0-6.4 6.4-12.8l160-236.8-166.4-243.2c-6.4-6.4 0-19.2 6.4-25.6 6.4 0 6.4-6.4 12.8-6.4h249.6c12.8 0 19.2 6.4 19.2 19.2 0 12.8-6.4 19.2-19.2 19.2H268.8L416 512z m371.2 256c6.4 6.4 6.4 25.6 0 32-6.4 6.4-25.6 6.4-32 0l-64-64-64 64c-6.4 6.4-25.6 6.4-32 0-6.4-6.4-6.4-25.6 0-32l64-64-64-64c-6.4-6.4-6.4-25.6 0-32 6.4-6.4 25.6-6.4 32 0l64 64 64-64c6.4-6.4 25.6-6.4 32 0 6.4 6.4 6.4 25.6 0 32l-64 64 64 64z m6.4-390.4h-83.2v83.2c0 12.8-6.4 19.2-19.2 19.2-12.8 0-19.2-6.4-19.2-19.2V377.6H582.4c-6.4 0-19.2-6.4-19.2-19.2s12.8-25.6 19.2-25.6h83.2V249.6c0-12.8 6.4-19.2 19.2-19.2 12.8 0 19.2 6.4 19.2 19.2v83.2h83.2c12.8 0 19.2 6.4 19.2 19.2s0 25.6-12.8 25.6z" fill="#D15220" p-id="6853"></path></svg>